:SAMPLES-PER-SECOND 30
:FULLY-SPECIFIED
:DEGREES
421
root  -4.07524 39.6037 -26.8908 -2.00702 72.056 -4.56792
RightUpLeg  -18.7562 -16.8293 -4.03943
RightLeg  17.2769 3.87426 1.3421
RightFoot  -9.42244 -0.150649 5.21385
RightToes  -8.73116e-010 0 -3.6325e-017
Spine  11.2887 -2.11578 -3.21808
Spine1  2.9965 -2.85641 1.85593
HEad  -17.5074 -7.62262 8.51389
LeftShoulder1  -0.497395 4.87653 -30.0337
LeftArm  -12.489 2.7242 -35.0986
LeftForeArm  14.4939 -25.2874 -4.6528
LeftHand  -0.167341 1.89183 5.31644
RightShoulder  -0.730944 -5.62246 27.8289
RightArm  17.6629 -12.9428 46.9757
RightForeArm  6.96962 18.1865 4.96179
RightHand  -0.443443 3.37054 -6.11774
LeftUpLeg  2.86862 12.9391 11.1455
LeftLeg  7.79311 7.30844 -1.43282
LeftFoot  -7.72674 0.3329 -9.06956
LeftToes  -5.63919e-011 3.32596e-011 1.92487e-011
422
root  -3.67786 39.6029 -26.7037 -1.27332 69.3115 -3.94069
RightUpLeg  -18.8772 -15.5038 -4.69013
RightLeg  12.0018 -0.59156 1.0762
RightFoot  -8.80248 -0.155589 4.29318
RightToes  -8.73116e-010 0 -3.6325e-017
Spine  10.7232 -2.20766 -3.37154
Spine1  4.15262 -3.13692 2.67925
HEad  -16.1407 -6.8939 7.98823
LeftShoulder1  -0.598844 5.12583 -30.7593
LeftArm  -13.6774 1.53869 -34.0659
LeftForeArm  14.4822 -26.5978 -4.94268
LeftHand  -0.162544 2.18758 5.52784
RightShoulder  -0.585426 -5.22186 27.3342
RightArm  16.5482 -12.7669 47.8444
RightForeArm  7.76375 17.8121 4.94279
RightHand  -0.415064 3.01887 -5.95951
LeftUpLeg  4.91791 12.8977 11.1916
LeftLeg  6.2466 9.91013 -1.56284
LeftFoot  -7.5033 0.363418 -9.48881
LeftToes  -5.63919e-011 3.32596e-011 1.92487e-011
423
root  -3.2539 39.5454 -26.4002 0.561951 66.8506 -2.25769
RightUpLeg  -18.8831 -12.09 -6.32752
RightLeg  7.45933 -7.47724 1.22918
RightFoot  -8.82069 -0.14255 3.75127
RightToes  -8.73116e-010 0 -3.6325e-017
Spine  10.9764 -2.21769 -2.97778
Spine1  3.63554 -2.97958 2.16148
HEad  -14.204 -6.65672 7.89258
LeftShoulder1  -0.528668 4.96554 -30.0125
LeftArm  -14.1452 1.11364 -34.2692
LeftForeArm  14.6842 -26.9128 -5.00314
LeftHand  -0.218201 1.58123 6.51399
RightShoulder  -0.609837 -5.2698 27.8
RightArm  17.1013 -13.2617 47.6195
RightForeArm  7.40438 17.9766 4.9644
RightHand  -0.406946 3.26835 -5.69023
LeftUpLeg  6.6488 12.5853 10.659
LeftLeg  5.02032 12.5481 -1.55542
LeftFoot  -7.37964 0.400904 -10.2966
LeftToes  -5.63919e-011 3.32596e-011 1.92487e-011
424
root  -2.77665 39.4365 -25.9764 1.84027 64.682 -0.92421
RightUpLeg  -18.6567 -10.8604 -7.12164
RightLeg  3.7802 -12.0896 1.78967
RightFoot  -8.20808 -0.151462 3.51038
RightToes  -8.73116e-010 0 -3.6325e-017
Spine  10.8753 -2.27342 -2.7676
Spine1  3.90318 -3.04183 2.22664
HEad  -13.0026 -6.34449 7.15026
LeftShoulder1  -0.583005 5.10057 -30.3592
LeftArm  -13.919 0.408234 -34.0062
LeftForeArm  15.2838 -27.0822 -5.0089
LeftHand  -0.189608 1.67859 5.75505
RightShoulder  -0.578283 -5.19036 27.5246
RightArm  17.1707 -13.2112 47.9387
RightForeArm  7.74377 17.5023 5.08342
RightHand  -0.366556 3.01912 -5.29194
LeftUpLeg  8.51998 12.5597 10.4906
LeftLeg  4.18742 14.3185 -1.77958
LeftFoot  -7.40428 0.43062 -11.2116
LeftToes  -5.63919e-011 3.32596e-011 1.92487e-011
425
root  -2.28138 39.2754 -25.4511 3.34235 62.6815 0.650269
RightUpLeg  -18.8915 -11.1869 -7.32046
RightLeg  2.23621 -14.7543 2.30804
RightFoot  -6.66231 -0.178921 3.21678
RightToes  -8.73116e-010 0 -3.6325e-017
Spine  10.8211 -2.2039 -2.4739
Spine1  4.15706 -2.94465 2.19018
HEad  -11.9075 -6.01998 6.444
LeftShoulder1  -0.561651 5.05086 -30.1412
LeftArm  -13.1776 0.231018 -34.7106
LeftForeArm  15.039 -27.2557 -5.06148
LeftHand  -0.192718 1.81223 6.04748
RightShoulder  -0.535525 -5.08334 27.1128
RightArm  16.714 -13.5936 48.1803
RightForeArm  8.36993 17.8837 4.92299
RightHand  -0.365769 3.30181 -5.12538
LeftUpLeg  10.1869 12.4711 10.2006
LeftLeg  3.83911 15.744 -1.87397
LeftFoot  -7.5498 0.462176 -12.5773
LeftToes  -5.63919e-011 3.32596e-011 1.92487e-011
426
root  -1.73616 39.0884 -24.7939 4.19232 60.7211 1.6205
RightUpLeg  -19.5131 -11.538 -7.05508
RightLeg  3.7153 -15.0592 2.33814
RightFoot  -4.81118 -0.160111 2.33787
RightToes  -8.73116e-010 0 -3.6325e-017
Spine  10.8602 -2.22807 -1.30304
Spine1  4.32032 -2.74824 1.49749
HEad  -11.2697 -5.72374 5.70168
LeftShoulder1  -0.506613 4.91004 -29.8726
LeftArm  -11.9267 0.65259 -35.3588
LeftForeArm  14.5083 -27.1104 -5.05745
LeftHand  -0.212314 1.45503 6.12801
RightShoulder  -0.547954 -5.11239 27.2783
RightArm  16.2163 -13.8527 47.9903
RightForeArm  8.77186 18.1108 4.80205
RightHand  -0.368541 3.01352 -5.31716
LeftUpLeg  11.9528 12.5443 10.402
LeftLeg  4.01904 16.567 -1.88874
LeftFoot  -7.81268 0.501064 -14.6725
LeftToes  -5.63919e-011 3.32596e-011 1.92487e-011
427
root  -1.18675 38.9135 -24.0219 3.95898 58.9752 1.31552
RightUpLeg  -21.214 -12.3383 -5.74505
RightLeg  8.27279 -14.1389 1.55057
RightFoot  -2.2121 0.0278132 -0.546115
RightToes  -8.73116e-010 0 -3.6325e-017
Spine  11.0548 -2.24191 0.409343
Spine1  4.55214 -2.68819 1.61962
HEad  -11.3253 -4.30459 4.09845
LeftShoulder1  -0.504481 4.89251 -30.1753
LeftArm  -9.94855 1.51094 -35.7021
LeftForeArm  13.9876 -27.161 -5.09732
LeftHand  -0.206472 1.34105 5.81582
RightShoulder  -0.590829 -5.22296 27.6195
RightArm  15.8129 -13.3564 47.3608
RightForeArm  8.85672 17.623 4.85999
RightHand  -0.360057 2.71891 -5.37667
LeftUpLeg  13.5584 13.0234 11.5432
LeftLeg  4.6089 16.4864 -1.72987
LeftFoot  -7.88629 0.561256 -16.9741
LeftToes  -5.63919e-011 3.32596e-011 1.92487e-011
428
root  -0.63728 38.7191 -23.1509 2.79443 57.0172 0.0376129
RightUpLeg  -22.6333 -14.3937 -3.27026
RightLeg  12.1997 -10.2188 0.893582
RightFoot  0.669818 0.13702 -1.28178
RightToes  -8.73116e-010 0 -3.6325e-017
Spine  11.5897 -2.38184 2.99855
Spine1  4.29157 -2.43805 1.0108
HEad  -10.9293 -3.25309 2.68589
LeftShoulder1  -0.477928 4.80899 -30.4724
LeftArm  -8.58772 2.97757 -36.2156
LeftForeArm  15.6924 -26.9509 -4.95685
LeftHand  -0.176051 1.04987 4.597
RightShoulder  -0.613699 -5.28377 27.7477
RightArm  14.8586 -12.5085 47.0618
RightForeArm  9.57376 16.8858 4.91007
RightHand  -0.345449 2.23854 -5.45864
LeftUpLeg  14.6405 14.9531 13.8097
LeftLeg  7.18804 14.8826 -0.774325
LeftFoot  -7.94506 0.657066 -20.3925
LeftToes  -5.63919e-011 3.32596e-011 1.92487e-011
